<?xml version="1.0" encoding="us-ascii" standalone="no"?><svg xmlns="http://www.w3.org/2000/svg" xmlns:xlink="http://www.w3.org/1999/xlink" contentStyleType="text/css" height="675px" preserveAspectRatio="none" style="width:1528px;height:675px;background:#FFFFFF;" version="1.1" viewBox="0 0 1528 675" width="1528px" zoomAndPan="magnify"><defs/><g><text fill="#000000" font-family="Verdana" font-size="22" font-weight="bold" lengthAdjust="spacing" textLength="205" x="657" y="35.4209">Data warehouse</text><!--cluster oltp--><g id="cluster_oltp"><rect fill="#FFFFFF" height="193" rx="2.5" ry="2.5" style="stroke:#000000;stroke-width:1.0;" width="1510" x="12" y="58.6094"/><text fill="#000000" font-family="Verdana" font-size="14" font-weight="bold" lengthAdjust="spacing" textLength="33" x="750.5" y="73.6045">oltp</text></g><!--cluster dwh--><g id="cluster_dwh"><rect fill="#FFFFFF" height="394" rx="2.5" ry="2.5" style="stroke:#000000;stroke-width:1.0;" width="952" x="570" y="275.6094"/><text fill="#000000" font-family="Verdana" font-size="14" font-weight="bold" lengthAdjust="spacing" textLength="33" x="1029.5" y="290.6045">dwh</text></g><!--class order_info--><g id="elem_order_info"><rect codeLine="13" fill="#FFFFFF" height="101.1875" id="order_info" rx="2.5" ry="2.5" style="stroke:#000000;stroke-width:1.0;" width="265.3333" x="28.5" y="114.1094"/><ellipse cx="116.4167" cy="128.1094" fill="#FFFF00" rx="9" ry="9" style="stroke:#000000;stroke-width:1.0;"/><path d="M116.8542,125.6406 L118.6979,125.6406 L118.6979,127.2344 C118.6979,127.625 118.7292,127.7969 118.8229,127.9375 C118.9792,128.1875 119.2604,128.3438 119.5573,128.3438 C119.8229,128.3438 120.0729,128.2188 120.2448,128 C120.3854,127.8281 120.401,127.7031 120.401,127.2344 L120.401,123.9531 L111.6354,123.9531 L111.6354,127.2344 C111.6354,127.625 111.6667,127.7969 111.7448,127.9375 C111.901,128.2031 112.1979,128.3438 112.4792,128.3438 C112.7604,128.3438 113.0104,128.2188 113.1823,128 C113.2917,127.8281 113.3229,127.6875 113.3229,127.2344 L113.3229,125.6406 L115.151,125.6406 L115.151,132.1563 L114.0417,132.1563 C113.6042,132.1563 113.4792,132.1719 113.3229,132.2813 C113.0729,132.4375 112.9167,132.7188 112.9167,133.0156 C112.9167,133.2656 113.0573,133.5313 113.276,133.6875 C113.4323,133.8125 113.651,133.8594 114.0417,133.8594 L117.9792,133.8594 C118.3073,133.8594 118.5729,133.8125 118.6823,133.7344 C118.9479,133.5938 119.0885,133.2969 119.0885,133.0156 C119.0885,132.7344 118.9635,132.4844 118.7292,132.3125 C118.5729,132.1875 118.4323,132.1563 117.9792,132.1563 L116.8542,132.1563 L116.8542,125.6406 Z " fill="#000000"/><text fill="#000000" font-family="Verdana" font-size="14" font-weight="bold" lengthAdjust="spacing" textLength="82" x="133.9167" y="132.9561">order_info</text><line style="stroke:#000000;stroke-width:1.0;" x1="29.5" x2="292.8333" y1="142.1094" y2="142.1094"/><path d="M41.9167,149.5729 C40.3067,149.5729 39,150.8796 39,152.4896 C39,152.6762 39,152.8629 39.035,153.0379 L35.5,156.5729 L35.5,158.9063 L39,158.9063 L39,156.5729 L41.3333,156.5729 L41.3333,155.4063 L41.3683,155.3713 C41.5433,155.4063 41.73,155.4063 41.9167,155.4063 C43.5267,155.4063 44.8333,154.0996 44.8333,152.4896 C44.8333,150.8796 43.5267,149.5729 41.9167,149.5729 M42.5,150.7396 C43.1417,150.7396 43.6667,151.2646 43.6667,151.9063 C43.6667,152.5479 43.1417,153.0729 42.5,153.0729 C41.8583,153.0729 41.3333,152.5479 41.3333,151.9063 C41.3333,151.2646 41.8583,150.7396 42.5,150.7396 " fill="#DAA520" style="stroke:;stroke-width:0.0;stroke-dasharray:;"/><text fill="#000000" font-family="Verdana" font-size="14" lengthAdjust="spacing" textLength="4" x="45.8333" y="159.1045">&#160;</text><text fill="#000000" font-family="Verdana" font-size="14" font-weight="bold" lengthAdjust="spacing" textLength="65" x="49.8333" y="159.1045">order_id</text><text fill="#000000" font-family="Verdana" font-size="14" lengthAdjust="spacing" textLength="115" x="114.8333" y="159.1045">:            INTEGER</text><path d="M39,165.8698 C37.0633,165.8698 35.5,167.4331 35.5,169.3698 C35.5,171.3065 37.0633,172.8698 39,172.8698 C40.9367,172.8698 42.5,171.3065 42.5,169.3698 C42.5,167.4331 40.9367,165.8698 39,165.8698 " fill="#FFFFFF" style="stroke:;stroke-width:0.0;stroke-dasharray:;"/><text fill="#000000" font-family="Verdana" font-size="14" lengthAdjust="spacing" textLength="4" x="45.8333" y="175.4014">&#160;</text><text fill="#000000" font-family="Verdana" font-size="14" font-weight="bold" lengthAdjust="spacing" textLength="99" x="49.8333" y="175.4014">customer_id</text><text fill="#000000" font-family="Verdana" font-size="14" lengthAdjust="spacing" textLength="131" x="148.8333" y="175.4014">:     VARCHAR(255)</text><path d="M39,182.1667 C37.0633,182.1667 35.5,183.73 35.5,185.6667 C35.5,187.6033 37.0633,189.1667 39,189.1667 C40.9367,189.1667 42.5,187.6033 42.5,185.6667 C42.5,183.73 40.9367,182.1667 39,182.1667 " fill="#FFFFFF" style="stroke:;stroke-width:0.0;stroke-dasharray:;"/><text fill="#000000" font-family="Verdana" font-size="14" lengthAdjust="spacing" textLength="4" x="45.8333" y="191.6982">&#160;</text><text fill="#000000" font-family="Verdana" font-size="14" font-weight="bold" lengthAdjust="spacing" textLength="119" x="49.8333" y="191.6982">salesperson_id</text><text fill="#000000" font-family="Verdana" font-size="14" lengthAdjust="spacing" textLength="119" x="168.8333" y="191.6982">:  VARCHAR(255)</text><path d="M39,198.4635 C37.0633,198.4635 35.5,200.0269 35.5,201.9635 C35.5,203.9002 37.0633,205.4635 39,205.4635 C40.9367,205.4635 42.5,203.9002 42.5,201.9635 C42.5,200.0269 40.9367,198.4635 39,198.4635 " fill="#FFFFFF" style="stroke:;stroke-width:0.0;stroke-dasharray:;"/><text fill="#000000" font-family="Verdana" font-size="14" lengthAdjust="spacing" textLength="4" x="45.8333" y="207.9951">&#160;</text><text fill="#000000" font-family="Verdana" font-size="14" font-weight="bold" lengthAdjust="spacing" textLength="107" x="49.8333" y="207.9951">updated_dtm</text><text fill="#000000" font-family="Verdana" font-size="14" lengthAdjust="spacing" textLength="108" x="156.8333" y="207.9951">:     TIMESTAMP</text></g><!--class orderline--><g id="elem_orderline"><rect codeLine="13" fill="#FFFFFF" height="133.7813" id="orderline" rx="2.5" ry="2.5" style="stroke:#000000;stroke-width:1.0;" width="242.3333" x="329" y="97.6094"/><ellipse cx="410.4167" cy="111.6094" fill="#FFFF00" rx="9" ry="9" style="stroke:#000000;stroke-width:1.0;"/><path d="M410.8542,109.1406 L412.6979,109.1406 L412.6979,110.7344 C412.6979,111.125 412.7292,111.2969 412.8229,111.4375 C412.9792,111.6875 413.2604,111.8438 413.5573,111.8438 C413.8229,111.8438 414.0729,111.7188 414.2448,111.5 C414.3854,111.3281 414.401,111.2031 414.401,110.7344 L414.401,107.4531 L405.6354,107.4531 L405.6354,110.7344 C405.6354,111.125 405.6667,111.2969 405.7448,111.4375 C405.901,111.7031 406.1979,111.8438 406.4792,111.8438 C406.7604,111.8438 407.0104,111.7188 407.1823,111.5 C407.2917,111.3281 407.3229,111.1875 407.3229,110.7344 L407.3229,109.1406 L409.151,109.1406 L409.151,115.6563 L408.0417,115.6563 C407.6042,115.6563 407.4792,115.6719 407.3229,115.7813 C407.0729,115.9375 406.9167,116.2188 406.9167,116.5156 C406.9167,116.7656 407.0573,117.0313 407.276,117.1875 C407.4323,117.3125 407.651,117.3594 408.0417,117.3594 L411.9792,117.3594 C412.3073,117.3594 412.5729,117.3125 412.6823,117.2344 C412.9479,117.0938 413.0885,116.7969 413.0885,116.5156 C413.0885,116.2344 412.9635,115.9844 412.7292,115.8125 C412.5729,115.6875 412.4323,115.6563 411.9792,115.6563 L410.8542,115.6563 L410.8542,109.1406 Z " fill="#000000"/><text fill="#000000" font-family="Verdana" font-size="14" font-weight="bold" lengthAdjust="spacing" textLength="72" x="427.9167" y="116.4561">orderline</text><line style="stroke:#000000;stroke-width:1.0;" x1="330" x2="570.3333" y1="125.6094" y2="125.6094"/><path d="M342.4167,133.0729 C340.8067,133.0729 339.5,134.3796 339.5,135.9896 C339.5,136.1762 339.5,136.3629 339.535,136.5379 L336,140.0729 L336,142.4063 L339.5,142.4063 L339.5,140.0729 L341.8333,140.0729 L341.8333,138.9063 L341.8683,138.8713 C342.0433,138.9063 342.23,138.9063 342.4167,138.9063 C344.0267,138.9063 345.3333,137.5996 345.3333,135.9896 C345.3333,134.3796 344.0267,133.0729 342.4167,133.0729 M343,134.2396 C343.6417,134.2396 344.1667,134.7646 344.1667,135.4063 C344.1667,136.0479 343.6417,136.5729 343,136.5729 C342.3583,136.5729 341.8333,136.0479 341.8333,135.4063 C341.8333,134.7646 342.3583,134.2396 343,134.2396 " fill="#DAA520" style="stroke:;stroke-width:0.0;stroke-dasharray:;"/><text fill="#000000" font-family="Verdana" font-size="14" lengthAdjust="spacing" textLength="4" x="346.3333" y="142.6045">&#160;</text><text fill="#000000" font-family="Verdana" font-size="14" font-weight="bold" lengthAdjust="spacing" textLength="94" x="350.3333" y="142.6045">orderline_id</text><text fill="#000000" font-family="Verdana" font-size="14" lengthAdjust="spacing" textLength="99" x="444.3333" y="142.6045">:        INTEGER</text><path d="M339.5,149.3698 C337.5633,149.3698 336,150.9331 336,152.8698 C336,154.8065 337.5633,156.3698 339.5,156.3698 C341.4367,156.3698 343,154.8065 343,152.8698 C343,150.9331 341.4367,149.3698 339.5,149.3698 " fill="#FFFFFF" style="stroke:;stroke-width:0.0;stroke-dasharray:;"/><text fill="#000000" font-family="Verdana" font-size="14" lengthAdjust="spacing" textLength="4" x="346.3333" y="158.9014">&#160;</text><text fill="#000000" font-family="Verdana" font-size="14" font-weight="bold" lengthAdjust="spacing" textLength="65" x="350.3333" y="158.9014">order_id</text><text fill="#000000" font-family="Verdana" font-size="14" lengthAdjust="spacing" textLength="99" x="415.3333" y="158.9014">:        INTEGER</text><path d="M339.5,165.6667 C337.5633,165.6667 336,167.23 336,169.1667 C336,171.1033 337.5633,172.6667 339.5,172.6667 C341.4367,172.6667 343,171.1033 343,169.1667 C343,167.23 341.4367,165.6667 339.5,165.6667 " fill="#FFFFFF" style="stroke:;stroke-width:0.0;stroke-dasharray:;"/><text fill="#000000" font-family="Verdana" font-size="14" lengthAdjust="spacing" textLength="4" x="346.3333" y="175.1982">&#160;</text><text fill="#000000" font-family="Verdana" font-size="14" font-weight="bold" lengthAdjust="spacing" textLength="86" x="350.3333" y="175.1982">product_id</text><text fill="#000000" font-family="Verdana" font-size="14" lengthAdjust="spacing" textLength="91" x="436.3333" y="175.1982">:      INTEGER</text><path d="M339.5,181.9635 C337.5633,181.9635 336,183.5269 336,185.4635 C336,187.4002 337.5633,188.9635 339.5,188.9635 C341.4367,188.9635 343,187.4002 343,185.4635 C343,183.5269 341.4367,181.9635 339.5,181.9635 " fill="#FFFFFF" style="stroke:;stroke-width:0.0;stroke-dasharray:;"/><text fill="#000000" font-family="Verdana" font-size="14" lengthAdjust="spacing" textLength="4" x="346.3333" y="191.4951">&#160;</text><text fill="#000000" font-family="Verdana" font-size="14" font-weight="bold" lengthAdjust="spacing" textLength="70" x="350.3333" y="191.4951">quantity</text><text fill="#000000" font-family="Verdana" font-size="14" lengthAdjust="spacing" textLength="74" x="420.3333" y="191.4951">:        REAL</text><path d="M339.5,198.2604 C337.5633,198.2604 336,199.8238 336,201.7604 C336,203.6971 337.5633,205.2604 339.5,205.2604 C341.4367,205.2604 343,203.6971 343,201.7604 C343,199.8238 341.4367,198.2604 339.5,198.2604 " fill="#FFFFFF" style="stroke:;stroke-width:0.0;stroke-dasharray:;"/><text fill="#000000" font-family="Verdana" font-size="14" lengthAdjust="spacing" textLength="4" x="346.3333" y="207.792">&#160;</text><text fill="#000000" font-family="Verdana" font-size="14" font-weight="bold" lengthAdjust="spacing" textLength="40" x="350.3333" y="207.792">price</text><text fill="#000000" font-family="Verdana" font-size="14" lengthAdjust="spacing" textLength="86" x="390.3333" y="207.792">:           REAL</text><path d="M339.5,214.5573 C337.5633,214.5573 336,216.1206 336,218.0573 C336,219.994 337.5633,221.5573 339.5,221.5573 C341.4367,221.5573 343,219.994 343,218.0573 C343,216.1206 341.4367,214.5573 339.5,214.5573 " fill="#FFFFFF" style="stroke:;stroke-width:0.0;stroke-dasharray:;"/><text fill="#000000" font-family="Verdana" font-size="14" lengthAdjust="spacing" textLength="4" x="346.3333" y="224.0889">&#160;</text><text fill="#000000" font-family="Verdana" font-size="14" font-weight="bold" lengthAdjust="spacing" textLength="107" x="350.3333" y="224.0889">updated_dtm</text><text fill="#000000" font-family="Verdana" font-size="14" lengthAdjust="spacing" textLength="108" x="457.3333" y="224.0889">:     TIMESTAMP</text></g><!--class customer--><g id="elem_customer"><rect codeLine="13" fill="#FFFFFF" height="141.7813" id="customer" rx="2.5" ry="2.5" style="stroke:#000000;stroke-width:1.0;" width="257.3333" x="606.5" y="93.6094"/><ellipse cx="692.9167" cy="107.6094" fill="#FFFF00" rx="9" ry="9" style="stroke:#000000;stroke-width:1.0;"/><path d="M693.3542,105.1406 L695.1979,105.1406 L695.1979,106.7344 C695.1979,107.125 695.2292,107.2969 695.3229,107.4375 C695.4792,107.6875 695.7604,107.8438 696.0573,107.8438 C696.3229,107.8438 696.5729,107.7188 696.7448,107.5 C696.8854,107.3281 696.901,107.2031 696.901,106.7344 L696.901,103.4531 L688.1354,103.4531 L688.1354,106.7344 C688.1354,107.125 688.1667,107.2969 688.2448,107.4375 C688.401,107.7031 688.6979,107.8438 688.9792,107.8438 C689.2604,107.8438 689.5104,107.7188 689.6823,107.5 C689.7917,107.3281 689.8229,107.1875 689.8229,106.7344 L689.8229,105.1406 L691.651,105.1406 L691.651,111.6563 L690.5417,111.6563 C690.1042,111.6563 689.9792,111.6719 689.8229,111.7813 C689.5729,111.9375 689.4167,112.2188 689.4167,112.5156 C689.4167,112.7656 689.5573,113.0313 689.776,113.1875 C689.9323,113.3125 690.151,113.3594 690.5417,113.3594 L694.4792,113.3594 C694.8073,113.3594 695.0729,113.3125 695.1823,113.2344 C695.4479,113.0938 695.5885,112.7969 695.5885,112.5156 C695.5885,112.2344 695.4635,111.9844 695.2292,111.8125 C695.0729,111.6875 694.9323,111.6563 694.4792,111.6563 L693.3542,111.6563 L693.3542,105.1406 Z " fill="#000000"/><text fill="#000000" font-family="Verdana" font-size="14" font-weight="bold" lengthAdjust="spacing" textLength="77" x="710.4167" y="112.4561">customer</text><line style="stroke:#000000;stroke-width:1.0;" x1="607.5" x2="862.8333" y1="121.6094" y2="121.6094"/><path d="M617,129.0729 C615.0633,129.0729 613.5,130.6363 613.5,132.5729 C613.5,134.5096 615.0633,136.0729 617,136.0729 C618.9367,136.0729 620.5,134.5096 620.5,132.5729 C620.5,130.6363 618.9367,129.0729 617,129.0729 " fill="#FFFFFF" style="stroke:;stroke-width:0.0;stroke-dasharray:;"/><text fill="#000000" font-family="Verdana" font-size="14" lengthAdjust="spacing" textLength="4" x="623.8333" y="138.6045">&#160;</text><text fill="#000000" font-family="Verdana" font-size="14" font-weight="bold" lengthAdjust="spacing" textLength="87" x="627.8333" y="138.6045">cust_name</text><text fill="#000000" font-family="Verdana" font-size="14" lengthAdjust="spacing" textLength="123" x="714.8333" y="138.6045">:   VARCHAR(255)</text><path d="M617,145.3698 C615.0633,145.3698 613.5,146.9331 613.5,148.8698 C613.5,150.8065 615.0633,152.3698 617,152.3698 C618.9367,152.3698 620.5,150.8065 620.5,148.8698 C620.5,146.9331 618.9367,145.3698 617,145.3698 " fill="#FFFFFF" style="stroke:;stroke-width:0.0;stroke-dasharray:;"/><text fill="#000000" font-family="Verdana" font-size="14" lengthAdjust="spacing" textLength="4" x="623.8333" y="154.9014">&#160;</text><text fill="#000000" font-family="Verdana" font-size="14" font-weight="bold" lengthAdjust="spacing" textLength="50" x="627.8333" y="154.9014">street</text><text fill="#000000" font-family="Verdana" font-size="14" lengthAdjust="spacing" textLength="135" x="677.8333" y="154.9014">:      VARCHAR(255)</text><path d="M617,161.6667 C615.0633,161.6667 613.5,163.23 613.5,165.1667 C613.5,167.1033 615.0633,168.6667 617,168.6667 C618.9367,168.6667 620.5,167.1033 620.5,165.1667 C620.5,163.23 618.9367,161.6667 617,161.6667 " fill="#FFFFFF" style="stroke:;stroke-width:0.0;stroke-dasharray:;"/><text fill="#000000" font-family="Verdana" font-size="14" lengthAdjust="spacing" textLength="4" x="623.8333" y="171.1982">&#160;</text><text fill="#000000" font-family="Verdana" font-size="14" font-weight="bold" lengthAdjust="spacing" textLength="31" x="627.8333" y="171.1982">city</text><text fill="#000000" font-family="Verdana" font-size="14" lengthAdjust="spacing" textLength="143" x="658.8333" y="171.1982">:        VARCHAR(255)</text><path d="M617,177.9635 C615.0633,177.9635 613.5,179.5269 613.5,181.4635 C613.5,183.4002 615.0633,184.9635 617,184.9635 C618.9367,184.9635 620.5,183.4002 620.5,181.4635 C620.5,179.5269 618.9367,177.9635 617,177.9635 " fill="#FFFFFF" style="stroke:;stroke-width:0.0;stroke-dasharray:;"/><text fill="#000000" font-family="Verdana" font-size="14" lengthAdjust="spacing" textLength="4" x="623.8333" y="187.4951">&#160;</text><text fill="#000000" font-family="Verdana" font-size="14" font-weight="bold" lengthAdjust="spacing" textLength="23" x="627.8333" y="187.4951">itn</text><text fill="#000000" font-family="Verdana" font-size="14" lengthAdjust="spacing" textLength="147" x="650.8333" y="187.4951">:         VARCHAR(255)</text><path d="M617,194.2604 C615.0633,194.2604 613.5,195.8238 613.5,197.7604 C613.5,199.6971 615.0633,201.2604 617,201.2604 C618.9367,201.2604 620.5,199.6971 620.5,197.7604 C620.5,195.8238 618.9367,194.2604 617,194.2604 " fill="#FFFFFF" style="stroke:;stroke-width:0.0;stroke-dasharray:;"/><text fill="#000000" font-family="Verdana" font-size="14" lengthAdjust="spacing" textLength="4" x="623.8333" y="203.792">&#160;</text><text fill="#000000" font-family="Verdana" font-size="14" font-weight="bold" lengthAdjust="spacing" textLength="107" x="627.8333" y="203.792">updated_dtm</text><text fill="#000000" font-family="Verdana" font-size="14" lengthAdjust="spacing" textLength="92" x="734.8333" y="203.792">: TIMESTAMP</text><line style="stroke:#000000;stroke-width:1.0;" x1="607.5" x2="862.8333" y1="211.0938" y2="211.0938"/><path d="M619.9167,218.5573 C618.3067,218.5573 617,219.864 617,221.474 C617,221.6606 617,221.8473 617.035,222.0223 L613.5,225.5573 L613.5,227.8906 L617,227.8906 L617,225.5573 L619.3333,225.5573 L619.3333,224.3906 L619.3683,224.3556 C619.5433,224.3906 619.73,224.3906 619.9167,224.3906 C621.5267,224.3906 622.8333,223.084 622.8333,221.474 C622.8333,219.864 621.5267,218.5573 619.9167,218.5573 M620.5,219.724 C621.1417,219.724 621.6667,220.249 621.6667,220.8906 C621.6667,221.5323 621.1417,222.0573 620.5,222.0573 C619.8583,222.0573 619.3333,221.5323 619.3333,220.8906 C619.3333,220.249 619.8583,219.724 620.5,219.724 " fill="#DAA520" style="stroke:;stroke-width:0.0;stroke-dasharray:;"/><text fill="#000000" font-family="Verdana" font-size="14" lengthAdjust="spacing" textLength="4" x="623.8333" y="228.0889">&#160;</text><text fill="#000000" font-family="Verdana" font-size="14" font-weight="bold" lengthAdjust="spacing" textLength="99" x="627.8333" y="228.0889">customer_id</text><text fill="#000000" font-family="Verdana" font-size="14" lengthAdjust="spacing" textLength="131" x="726.8333" y="228.0889">:     VARCHAR(255)</text></g><!--class product--><g id="elem_product"><rect codeLine="13" fill="#FFFFFF" height="84.8906" id="product" rx="2.5" ry="2.5" style="stroke:#000000;stroke-width:1.0;" width="269.3333" x="1236.5" y="122.1094"/><ellipse cx="1335.4167" cy="136.1094" fill="#FFFF00" rx="9" ry="9" style="stroke:#000000;stroke-width:1.0;"/><path d="M1335.8542,133.6406 L1337.6979,133.6406 L1337.6979,135.2344 C1337.6979,135.625 1337.7292,135.7969 1337.8229,135.9375 C1337.9792,136.1875 1338.2604,136.3438 1338.5573,136.3438 C1338.8229,136.3438 1339.0729,136.2188 1339.2448,136 C1339.3854,135.8281 1339.401,135.7031 1339.401,135.2344 L1339.401,131.9531 L1330.6354,131.9531 L1330.6354,135.2344 C1330.6354,135.625 1330.6667,135.7969 1330.7448,135.9375 C1330.901,136.2031 1331.1979,136.3438 1331.4792,136.3438 C1331.7604,136.3438 1332.0104,136.2188 1332.1823,136 C1332.2917,135.8281 1332.3229,135.6875 1332.3229,135.2344 L1332.3229,133.6406 L1334.151,133.6406 L1334.151,140.1563 L1333.0417,140.1563 C1332.6042,140.1563 1332.4792,140.1719 1332.3229,140.2813 C1332.0729,140.4375 1331.9167,140.7188 1331.9167,141.0156 C1331.9167,141.2656 1332.0573,141.5313 1332.276,141.6875 C1332.4323,141.8125 1332.651,141.8594 1333.0417,141.8594 L1336.9792,141.8594 C1337.3073,141.8594 1337.5729,141.8125 1337.6823,141.7344 C1337.9479,141.5938 1338.0885,141.2969 1338.0885,141.0156 C1338.0885,140.7344 1337.9635,140.4844 1337.7292,140.3125 C1337.5729,140.1875 1337.4323,140.1563 1336.9792,140.1563 L1335.8542,140.1563 L1335.8542,133.6406 Z " fill="#000000"/><text fill="#000000" font-family="Verdana" font-size="14" font-weight="bold" lengthAdjust="spacing" textLength="64" x="1352.9167" y="140.9561">product</text><line style="stroke:#000000;stroke-width:1.0;" x1="1237.5" x2="1504.8333" y1="150.1094" y2="150.1094"/><path d="M1249.9167,157.5729 C1248.3067,157.5729 1247,158.8796 1247,160.4896 C1247,160.6762 1247,160.8629 1247.035,161.0379 L1243.5,164.5729 L1243.5,166.9063 L1247,166.9063 L1247,164.5729 L1249.3333,164.5729 L1249.3333,163.4063 L1249.3683,163.3713 C1249.5433,163.4063 1249.73,163.4063 1249.9167,163.4063 C1251.5267,163.4063 1252.8333,162.0996 1252.8333,160.4896 C1252.8333,158.8796 1251.5267,157.5729 1249.9167,157.5729 M1250.5,158.7396 C1251.1417,158.7396 1251.6667,159.2646 1251.6667,159.9063 C1251.6667,160.5479 1251.1417,161.0729 1250.5,161.0729 C1249.8583,161.0729 1249.3333,160.5479 1249.3333,159.9063 C1249.3333,159.2646 1249.8583,158.7396 1250.5,158.7396 " fill="#DAA520" style="stroke:;stroke-width:0.0;stroke-dasharray:;"/><text fill="#000000" font-family="Verdana" font-size="14" lengthAdjust="spacing" textLength="4" x="1253.8333" y="167.1045">&#160;</text><text fill="#000000" font-family="Verdana" font-size="14" font-weight="bold" lengthAdjust="spacing" textLength="86" x="1257.8333" y="167.1045">product_id</text><text fill="#000000" font-family="Verdana" font-size="14" lengthAdjust="spacing" textLength="107" x="1343.8333" y="167.1045">:          INTEGER</text><path d="M1247,173.8698 C1245.0633,173.8698 1243.5,175.4331 1243.5,177.3698 C1243.5,179.3065 1245.0633,180.8698 1247,180.8698 C1248.9367,180.8698 1250.5,179.3065 1250.5,177.3698 C1250.5,175.4331 1248.9367,173.8698 1247,173.8698 " fill="#FFFFFF" style="stroke:;stroke-width:0.0;stroke-dasharray:;"/><text fill="#000000" font-family="Verdana" font-size="14" lengthAdjust="spacing" textLength="4" x="1253.8333" y="183.4014">&#160;</text><text fill="#000000" font-family="Verdana" font-size="14" font-weight="bold" lengthAdjust="spacing" textLength="115" x="1257.8333" y="183.4014">product_name</text><text fill="#000000" font-family="Verdana" font-size="14" lengthAdjust="spacing" textLength="127" x="1372.8333" y="183.4014">:    VARCHAR(255)</text><path d="M1247,190.1667 C1245.0633,190.1667 1243.5,191.73 1243.5,193.6667 C1243.5,195.6033 1245.0633,197.1667 1247,197.1667 C1248.9367,197.1667 1250.5,195.6033 1250.5,193.6667 C1250.5,191.73 1248.9367,190.1667 1247,190.1667 " fill="#FFFFFF" style="stroke:;stroke-width:0.0;stroke-dasharray:;"/><text fill="#000000" font-family="Verdana" font-size="14" lengthAdjust="spacing" textLength="4" x="1253.8333" y="199.6982">&#160;</text><text fill="#000000" font-family="Verdana" font-size="14" font-weight="bold" lengthAdjust="spacing" textLength="107" x="1257.8333" y="199.6982">updated_dtm</text><text fill="#000000" font-family="Verdana" font-size="14" lengthAdjust="spacing" textLength="108" x="1364.8333" y="199.6982">:     TIMESTAMP</text></g><!--class salesperson--><g id="elem_salesperson"><rect codeLine="13" fill="#FFFFFF" height="92.8906" id="salesperson" rx="2.5" ry="2.5" style="stroke:#000000;stroke-width:1.0;" width="302.3333" x="899" y="118.1094"/><ellipse cx="997.9167" cy="132.1094" fill="#FFFF00" rx="9" ry="9" style="stroke:#000000;stroke-width:1.0;"/><path d="M998.3542,129.6406 L1000.1979,129.6406 L1000.1979,131.2344 C1000.1979,131.625 1000.2292,131.7969 1000.3229,131.9375 C1000.4792,132.1875 1000.7604,132.3438 1001.0573,132.3438 C1001.3229,132.3438 1001.5729,132.2188 1001.7448,132 C1001.8854,131.8281 1001.901,131.7031 1001.901,131.2344 L1001.901,127.9531 L993.1354,127.9531 L993.1354,131.2344 C993.1354,131.625 993.1667,131.7969 993.2448,131.9375 C993.401,132.2031 993.6979,132.3438 993.9792,132.3438 C994.2604,132.3438 994.5104,132.2188 994.6823,132 C994.7917,131.8281 994.8229,131.6875 994.8229,131.2344 L994.8229,129.6406 L996.651,129.6406 L996.651,136.1563 L995.5417,136.1563 C995.1042,136.1563 994.9792,136.1719 994.8229,136.2813 C994.5729,136.4375 994.4167,136.7188 994.4167,137.0156 C994.4167,137.2656 994.5573,137.5313 994.776,137.6875 C994.9323,137.8125 995.151,137.8594 995.5417,137.8594 L999.4792,137.8594 C999.8073,137.8594 1000.0729,137.8125 1000.1823,137.7344 C1000.4479,137.5938 1000.5885,137.2969 1000.5885,137.0156 C1000.5885,136.7344 1000.4635,136.4844 1000.2292,136.3125 C1000.0729,136.1875 999.9323,136.1563 999.4792,136.1563 L998.3542,136.1563 L998.3542,129.6406 Z " fill="#000000"/><text fill="#000000" font-family="Verdana" font-size="14" font-weight="bold" lengthAdjust="spacing" textLength="97" x="1015.4167" y="136.9561">salesperson</text><line style="stroke:#000000;stroke-width:1.0;" x1="900" x2="1200.3333" y1="146.1094" y2="146.1094"/><path d="M909.5,153.5729 C907.5633,153.5729 906,155.1363 906,157.0729 C906,159.0096 907.5633,160.5729 909.5,160.5729 C911.4367,160.5729 913,159.0096 913,157.0729 C913,155.1363 911.4367,153.5729 909.5,153.5729 " fill="#FFFFFF" style="stroke:;stroke-width:0.0;stroke-dasharray:;"/><text fill="#000000" font-family="Verdana" font-size="14" lengthAdjust="spacing" textLength="4" x="916.3333" y="163.1045">&#160;</text><text fill="#000000" font-family="Verdana" font-size="14" font-weight="bold" lengthAdjust="spacing" textLength="148" x="920.3333" y="163.1045">salesperson_name</text><text fill="#000000" font-family="Verdana" font-size="14" lengthAdjust="spacing" textLength="127" x="1068.3333" y="163.1045">:    VARCHAR(255)</text><path d="M909.5,169.8698 C907.5633,169.8698 906,171.4331 906,173.3698 C906,175.3065 907.5633,176.8698 909.5,176.8698 C911.4367,176.8698 913,175.3065 913,173.3698 C913,171.4331 911.4367,169.8698 909.5,169.8698 " fill="#FFFFFF" style="stroke:;stroke-width:0.0;stroke-dasharray:;"/><text fill="#000000" font-family="Verdana" font-size="14" lengthAdjust="spacing" textLength="4" x="916.3333" y="179.4014">&#160;</text><text fill="#000000" font-family="Verdana" font-size="14" font-weight="bold" lengthAdjust="spacing" textLength="107" x="920.3333" y="179.4014">updated_dtm</text><text fill="#000000" font-family="Verdana" font-size="14" lengthAdjust="spacing" textLength="124" x="1027.3333" y="179.4014">:         TIMESTAMP</text><line style="stroke:#000000;stroke-width:1.0;" x1="900" x2="1200.3333" y1="186.7031" y2="186.7031"/><path d="M912.4167,194.1667 C910.8067,194.1667 909.5,195.4733 909.5,197.0833 C909.5,197.27 909.5,197.4567 909.535,197.6317 L906,201.1667 L906,203.5 L909.5,203.5 L909.5,201.1667 L911.8333,201.1667 L911.8333,200 L911.8683,199.965 C912.0433,200 912.23,200 912.4167,200 C914.0267,200 915.3333,198.6933 915.3333,197.0833 C915.3333,195.4733 914.0267,194.1667 912.4167,194.1667 M913,195.3333 C913.6417,195.3333 914.1667,195.8583 914.1667,196.5 C914.1667,197.1417 913.6417,197.6667 913,197.6667 C912.3583,197.6667 911.8333,197.1417 911.8333,196.5 C911.8333,195.8583 912.3583,195.3333 913,195.3333 " fill="#DAA520" style="stroke:;stroke-width:0.0;stroke-dasharray:;"/><text fill="#000000" font-family="Verdana" font-size="14" lengthAdjust="spacing" textLength="4" x="916.3333" y="203.6982">&#160;</text><text fill="#000000" font-family="Verdana" font-size="14" font-weight="bold" lengthAdjust="spacing" textLength="119" x="920.3333" y="203.6982">salesperson_id</text><text fill="#000000" font-family="Verdana" font-size="14" lengthAdjust="spacing" textLength="151" x="1039.3333" y="203.6982">:          VARCHAR(255)</text></g><!--class fact_orderline--><g id="elem_fact_orderline"><rect codeLine="9" fill="#FFFFFF" height="166.375" id="fact_orderline" rx="2.5" ry="2.5" style="stroke:#000000;stroke-width:1.0;" width="274.3333" x="588" y="487.6094"/><ellipse cx="664.9167" cy="501.6094" fill="#1E90FF" rx="9" ry="9" style="stroke:#000000;stroke-width:1.0;"/><path d="M665.3542,499.1406 L667.1979,499.1406 L667.1979,500.7344 C667.1979,501.125 667.2292,501.2969 667.3229,501.4375 C667.4792,501.6875 667.7604,501.8438 668.0573,501.8438 C668.3229,501.8438 668.5729,501.7188 668.7448,501.5 C668.8854,501.3281 668.901,501.2031 668.901,500.7344 L668.901,497.4531 L660.1354,497.4531 L660.1354,500.7344 C660.1354,501.125 660.1667,501.2969 660.2448,501.4375 C660.401,501.7031 660.6979,501.8438 660.9792,501.8438 C661.2604,501.8438 661.5104,501.7188 661.6823,501.5 C661.7917,501.3281 661.8229,501.1875 661.8229,500.7344 L661.8229,499.1406 L663.651,499.1406 L663.651,505.6563 L662.5417,505.6563 C662.1042,505.6563 661.9792,505.6719 661.8229,505.7813 C661.5729,505.9375 661.4167,506.2188 661.4167,506.5156 C661.4167,506.7656 661.5573,507.0313 661.776,507.1875 C661.9323,507.3125 662.151,507.3594 662.5417,507.3594 L666.4792,507.3594 C666.8073,507.3594 667.0729,507.3125 667.1823,507.2344 C667.4479,507.0938 667.5885,506.7969 667.5885,506.5156 C667.5885,506.2344 667.4635,505.9844 667.2292,505.8125 C667.0729,505.6875 666.9323,505.6563 666.4792,505.6563 L665.3542,505.6563 L665.3542,499.1406 Z " fill="#000000"/><text fill="#000000" font-family="Verdana" font-size="14" font-weight="bold" lengthAdjust="spacing" textLength="113" x="682.4167" y="506.4561">fact_orderline</text><line style="stroke:#000000;stroke-width:1.0;" x1="589" x2="861.3333" y1="515.6094" y2="515.6094"/><path d="M601.4167,523.0729 C599.8067,523.0729 598.5,524.3796 598.5,525.9896 C598.5,526.1763 598.5,526.3629 598.535,526.5379 L595,530.0729 L595,532.4063 L598.5,532.4063 L598.5,530.0729 L600.8333,530.0729 L600.8333,528.9063 L600.8683,528.8712 C601.0433,528.9063 601.23,528.9063 601.4167,528.9063 C603.0267,528.9063 604.3333,527.5996 604.3333,525.9896 C604.3333,524.3796 603.0267,523.0729 601.4167,523.0729 M602,524.2396 C602.6417,524.2396 603.1667,524.7646 603.1667,525.4063 C603.1667,526.0479 602.6417,526.5729 602,526.5729 C601.3583,526.5729 600.8333,526.0479 600.8333,525.4063 C600.8333,524.7646 601.3583,524.2396 602,524.2396 " fill="#DAA520" style="stroke:;stroke-width:0.0;stroke-dasharray:;"/><text fill="#000000" font-family="Verdana" font-size="14" lengthAdjust="spacing" textLength="4" x="605.3333" y="532.6045">&#160;</text><text fill="#000000" font-family="Verdana" font-size="14" font-weight="bold" lengthAdjust="spacing" textLength="94" x="609.3333" y="532.6045">orderline_id</text><text fill="#000000" font-family="Verdana" font-size="14" lengthAdjust="spacing" textLength="131" x="703.3333" y="532.6045">:                INTEGER</text><path d="M598.5,539.3698 C596.5633,539.3698 595,540.9331 595,542.8698 C595,544.8065 596.5633,546.3698 598.5,546.3698 C600.4367,546.3698 602,544.8065 602,542.8698 C602,540.9331 600.4367,539.3698 598.5,539.3698 " fill="#FFFFFF" style="stroke:;stroke-width:0.0;stroke-dasharray:;"/><text fill="#000000" font-family="Verdana" font-size="14" lengthAdjust="spacing" textLength="4" x="605.3333" y="548.9014">&#160;</text><text fill="#000000" font-family="Verdana" font-size="14" font-weight="bold" lengthAdjust="spacing" textLength="111" x="609.3333" y="548.9014">customer_key</text><text fill="#000000" font-family="Verdana" font-size="14" lengthAdjust="spacing" textLength="115" x="720.3333" y="548.9014">:            INTEGER</text><path d="M598.5,555.6667 C596.5633,555.6667 595,557.23 595,559.1667 C595,561.1033 596.5633,562.6667 598.5,562.6667 C600.4367,562.6667 602,561.1033 602,559.1667 C602,557.23 600.4367,555.6667 598.5,555.6667 " fill="#FFFFFF" style="stroke:;stroke-width:0.0;stroke-dasharray:;"/><text fill="#000000" font-family="Verdana" font-size="14" lengthAdjust="spacing" textLength="4" x="605.3333" y="565.1982">&#160;</text><text fill="#000000" font-family="Verdana" font-size="14" font-weight="bold" lengthAdjust="spacing" textLength="131" x="609.3333" y="565.1982">salesperson_key</text><text fill="#000000" font-family="Verdana" font-size="14" lengthAdjust="spacing" textLength="103" x="740.3333" y="565.1982">:         INTEGER</text><path d="M598.5,571.9635 C596.5633,571.9635 595,573.5269 595,575.4635 C595,577.4002 596.5633,578.9635 598.5,578.9635 C600.4367,578.9635 602,577.4002 602,575.4635 C602,573.5269 600.4367,571.9635 598.5,571.9635 " fill="#FFFFFF" style="stroke:;stroke-width:0.0;stroke-dasharray:;"/><text fill="#000000" font-family="Verdana" font-size="14" lengthAdjust="spacing" textLength="4" x="605.3333" y="581.4951">&#160;</text><text fill="#000000" font-family="Verdana" font-size="14" font-weight="bold" lengthAdjust="spacing" textLength="65" x="609.3333" y="581.4951">order_id</text><text fill="#000000" font-family="Verdana" font-size="14" lengthAdjust="spacing" textLength="131" x="674.3333" y="581.4951">:                INTEGER</text><path d="M598.5,588.2604 C596.5633,588.2604 595,589.8238 595,591.7604 C595,593.6971 596.5633,595.2604 598.5,595.2604 C600.4367,595.2604 602,593.6971 602,591.7604 C602,589.8238 600.4367,588.2604 598.5,588.2604 " fill="#FFFFFF" style="stroke:;stroke-width:0.0;stroke-dasharray:;"/><text fill="#000000" font-family="Verdana" font-size="14" lengthAdjust="spacing" textLength="4" x="605.3333" y="597.792">&#160;</text><text fill="#000000" font-family="Verdana" font-size="14" font-weight="bold" lengthAdjust="spacing" textLength="98" x="609.3333" y="597.792">product_key</text><text fill="#000000" font-family="Verdana" font-size="14" lengthAdjust="spacing" textLength="119" x="707.3333" y="597.792">:             INTEGER</text><path d="M598.5,604.5573 C596.5633,604.5573 595,606.1206 595,608.0573 C595,609.994 596.5633,611.5573 598.5,611.5573 C600.4367,611.5573 602,609.994 602,608.0573 C602,606.1206 600.4367,604.5573 598.5,604.5573 " fill="#FFFFFF" style="stroke:;stroke-width:0.0;stroke-dasharray:;"/><text fill="#000000" font-family="Verdana" font-size="14" lengthAdjust="spacing" textLength="4" x="605.3333" y="614.0889">&#160;</text><text fill="#000000" font-family="Verdana" font-size="14" font-weight="bold" lengthAdjust="spacing" textLength="70" x="609.3333" y="614.0889">quantity</text><text fill="#000000" font-family="Verdana" font-size="14" lengthAdjust="spacing" textLength="106" x="679.3333" y="614.0889">:                REAL</text><path d="M598.5,620.8542 C596.5633,620.8542 595,622.4175 595,624.3542 C595,626.2908 596.5633,627.8542 598.5,627.8542 C600.4367,627.8542 602,626.2908 602,624.3542 C602,622.4175 600.4367,620.8542 598.5,620.8542 " fill="#FFFFFF" style="stroke:;stroke-width:0.0;stroke-dasharray:;"/><text fill="#000000" font-family="Verdana" font-size="14" lengthAdjust="spacing" textLength="4" x="605.3333" y="630.3857">&#160;</text><text fill="#000000" font-family="Verdana" font-size="14" font-weight="bold" lengthAdjust="spacing" textLength="40" x="609.3333" y="630.3857">price</text><text fill="#000000" font-family="Verdana" font-size="14" lengthAdjust="spacing" textLength="118" x="649.3333" y="630.3857">:                   REAL</text><path d="M598.5,637.151 C596.5633,637.151 595,638.7144 595,640.651 C595,642.5877 596.5633,644.151 598.5,644.151 C600.4367,644.151 602,642.5877 602,640.651 C602,638.7144 600.4367,637.151 598.5,637.151 " fill="#FFFFFF" style="stroke:;stroke-width:0.0;stroke-dasharray:;"/><text fill="#000000" font-family="Verdana" font-size="14" lengthAdjust="spacing" textLength="4" x="605.3333" y="646.6826">&#160;</text><text fill="#000000" font-family="Verdana" font-size="14" font-weight="bold" lengthAdjust="spacing" textLength="107" x="609.3333" y="646.6826">updated_dtm</text><text fill="#000000" font-family="Verdana" font-size="14" lengthAdjust="spacing" textLength="140" x="716.3333" y="646.6826">:             TIMESTAMP</text></g><!--class dim_customer--><g id="elem_dim_customer"><rect codeLine="9" fill="#FFFFFF" height="117.4844" id="dim_customer" rx="2.5" ry="2.5" style="stroke:#000000;stroke-width:1.0;" width="278.3333" x="586" y="310.6094"/><ellipse cx="664.4167" cy="324.6094" fill="#1E90FF" rx="9" ry="9" style="stroke:#000000;stroke-width:1.0;"/><path d="M664.8542,322.1406 L666.6979,322.1406 L666.6979,323.7344 C666.6979,324.125 666.7292,324.2969 666.8229,324.4375 C666.9792,324.6875 667.2604,324.8438 667.5573,324.8438 C667.8229,324.8438 668.0729,324.7188 668.2448,324.5 C668.3854,324.3281 668.401,324.2031 668.401,323.7344 L668.401,320.4531 L659.6354,320.4531 L659.6354,323.7344 C659.6354,324.125 659.6667,324.2969 659.7448,324.4375 C659.901,324.7031 660.1979,324.8438 660.4792,324.8438 C660.7604,324.8438 661.0104,324.7188 661.1823,324.5 C661.2917,324.3281 661.3229,324.1875 661.3229,323.7344 L661.3229,322.1406 L663.151,322.1406 L663.151,328.6563 L662.0417,328.6563 C661.6042,328.6563 661.4792,328.6719 661.3229,328.7813 C661.0729,328.9375 660.9167,329.2188 660.9167,329.5156 C660.9167,329.7656 661.0573,330.0313 661.276,330.1875 C661.4323,330.3125 661.651,330.3594 662.0417,330.3594 L665.9792,330.3594 C666.3073,330.3594 666.5729,330.3125 666.6823,330.2344 C666.9479,330.0938 667.0885,329.7969 667.0885,329.5156 C667.0885,329.2344 666.9635,328.9844 666.7292,328.8125 C666.5729,328.6875 666.4323,328.6563 665.9792,328.6563 L664.8542,328.6563 L664.8542,322.1406 Z " fill="#000000"/><text fill="#000000" font-family="Verdana" font-size="14" font-weight="bold" lengthAdjust="spacing" textLength="114" x="681.9167" y="329.4561">dim_customer</text><line style="stroke:#000000;stroke-width:1.0;" x1="587" x2="863.3333" y1="338.6094" y2="338.6094"/><path d="M599.4167,346.0729 C597.8067,346.0729 596.5,347.3796 596.5,348.9896 C596.5,349.1763 596.5,349.3629 596.535,349.5379 L593,353.0729 L593,355.4063 L596.5,355.4063 L596.5,353.0729 L598.8333,353.0729 L598.8333,351.9063 L598.8683,351.8713 C599.0433,351.9063 599.23,351.9063 599.4167,351.9063 C601.0267,351.9063 602.3333,350.5996 602.3333,348.9896 C602.3333,347.3796 601.0267,346.0729 599.4167,346.0729 M600,347.2396 C600.6417,347.2396 601.1667,347.7646 601.1667,348.4063 C601.1667,349.0479 600.6417,349.5729 600,349.5729 C599.3583,349.5729 598.8333,349.0479 598.8333,348.4063 C598.8333,347.7646 599.3583,347.2396 600,347.2396 " fill="#DAA520" style="stroke:;stroke-width:0.0;stroke-dasharray:;"/><text fill="#000000" font-family="Verdana" font-size="14" lengthAdjust="spacing" textLength="4" x="603.3333" y="355.6045">&#160;</text><text fill="#000000" font-family="Verdana" font-size="14" font-weight="bold" lengthAdjust="spacing" textLength="111" x="607.3333" y="355.6045">customer_key</text><text fill="#000000" font-family="Verdana" font-size="14" lengthAdjust="spacing" textLength="99" x="718.3333" y="355.6045">:        INTEGER</text><path d="M596.5,362.3698 C594.5633,362.3698 593,363.9331 593,365.8698 C593,367.8065 594.5633,369.3698 596.5,369.3698 C598.4367,369.3698 600,367.8065 600,365.8698 C600,363.9331 598.4367,362.3698 596.5,362.3698 " fill="#FFFFFF" style="stroke:;stroke-width:0.0;stroke-dasharray:;"/><text fill="#000000" font-family="Verdana" font-size="14" lengthAdjust="spacing" textLength="4" x="603.3333" y="371.9014">&#160;</text><text fill="#000000" font-family="Verdana" font-size="14" font-weight="bold" lengthAdjust="spacing" textLength="99" x="607.3333" y="371.9014">customer_id</text><text fill="#000000" font-family="Verdana" font-size="14" lengthAdjust="spacing" textLength="131" x="706.3333" y="371.9014">:     VARCHAR(255)</text><path d="M596.5,378.6667 C594.5633,378.6667 593,380.23 593,382.1667 C593,384.1033 594.5633,385.6667 596.5,385.6667 C598.4367,385.6667 600,384.1033 600,382.1667 C600,380.23 598.4367,378.6667 596.5,378.6667 " fill="#FFFFFF" style="stroke:;stroke-width:0.0;stroke-dasharray:;"/><text fill="#000000" font-family="Verdana" font-size="14" lengthAdjust="spacing" textLength="4" x="603.3333" y="388.1982">&#160;</text><text fill="#000000" font-family="Verdana" font-size="14" font-weight="bold" lengthAdjust="spacing" textLength="128" x="607.3333" y="388.1982">customer_name</text><text fill="#000000" font-family="Verdana" font-size="14" lengthAdjust="spacing" textLength="123" x="735.3333" y="388.1982">:   VARCHAR(255)</text><path d="M596.5,394.9635 C594.5633,394.9635 593,396.5269 593,398.4635 C593,400.4002 594.5633,401.9635 596.5,401.9635 C598.4367,401.9635 600,400.4002 600,398.4635 C600,396.5269 598.4367,394.9635 596.5,394.9635 " fill="#FFFFFF" style="stroke:;stroke-width:0.0;stroke-dasharray:;"/><text fill="#000000" font-family="Verdana" font-size="14" lengthAdjust="spacing" textLength="4" x="603.3333" y="404.4951">&#160;</text><text fill="#000000" font-family="Verdana" font-size="14" font-weight="bold" lengthAdjust="spacing" textLength="107" x="607.3333" y="404.4951">customer_itn</text><text fill="#000000" font-family="Verdana" font-size="14" lengthAdjust="spacing" textLength="127" x="714.3333" y="404.4951">:    VARCHAR(255)</text><path d="M596.5,411.2604 C594.5633,411.2604 593,412.8238 593,414.7604 C593,416.6971 594.5633,418.2604 596.5,418.2604 C598.4367,418.2604 600,416.6971 600,414.7604 C600,412.8238 598.4367,411.2604 596.5,411.2604 " fill="#FFFFFF" style="stroke:;stroke-width:0.0;stroke-dasharray:;"/><text fill="#000000" font-family="Verdana" font-size="14" lengthAdjust="spacing" textLength="4" x="603.3333" y="420.792">&#160;</text><text fill="#000000" font-family="Verdana" font-size="14" font-weight="bold" lengthAdjust="spacing" textLength="107" x="607.3333" y="420.792">updated_dtm</text><text fill="#000000" font-family="Verdana" font-size="14" lengthAdjust="spacing" textLength="108" x="714.3333" y="420.792">:     TIMESTAMP</text></g><!--class dim_product--><g id="elem_dim_product"><rect codeLine="9" fill="#FFFFFF" height="101.1875" id="dim_product" rx="2.5" ry="2.5" style="stroke:#000000;stroke-width:1.0;" width="269.3333" x="1236.5" y="318.6094"/><ellipse cx="1316.9167" cy="332.6094" fill="#1E90FF" rx="9" ry="9" style="stroke:#000000;stroke-width:1.0;"/><path d="M1317.3542,330.1406 L1319.1979,330.1406 L1319.1979,331.7344 C1319.1979,332.125 1319.2292,332.2969 1319.3229,332.4375 C1319.4792,332.6875 1319.7604,332.8438 1320.0573,332.8438 C1320.3229,332.8438 1320.5729,332.7188 1320.7448,332.5 C1320.8854,332.3281 1320.901,332.2031 1320.901,331.7344 L1320.901,328.4531 L1312.1354,328.4531 L1312.1354,331.7344 C1312.1354,332.125 1312.1667,332.2969 1312.2448,332.4375 C1312.401,332.7031 1312.6979,332.8438 1312.9792,332.8438 C1313.2604,332.8438 1313.5104,332.7188 1313.6823,332.5 C1313.7917,332.3281 1313.8229,332.1875 1313.8229,331.7344 L1313.8229,330.1406 L1315.651,330.1406 L1315.651,336.6563 L1314.5417,336.6563 C1314.1042,336.6563 1313.9792,336.6719 1313.8229,336.7813 C1313.5729,336.9375 1313.4167,337.2188 1313.4167,337.5156 C1313.4167,337.7656 1313.5573,338.0313 1313.776,338.1875 C1313.9323,338.3125 1314.151,338.3594 1314.5417,338.3594 L1318.4792,338.3594 C1318.8073,338.3594 1319.0729,338.3125 1319.1823,338.2344 C1319.4479,338.0938 1319.5885,337.7969 1319.5885,337.5156 C1319.5885,337.2344 1319.4635,336.9844 1319.2292,336.8125 C1319.0729,336.6875 1318.9323,336.6563 1318.4792,336.6563 L1317.3542,336.6563 L1317.3542,330.1406 Z " fill="#000000"/><text fill="#000000" font-family="Verdana" font-size="14" font-weight="bold" lengthAdjust="spacing" textLength="101" x="1334.4167" y="337.4561">dim_product</text><line style="stroke:#000000;stroke-width:1.0;" x1="1237.5" x2="1504.8333" y1="346.6094" y2="346.6094"/><path d="M1249.9167,354.0729 C1248.3067,354.0729 1247,355.3796 1247,356.9896 C1247,357.1763 1247,357.3629 1247.035,357.5379 L1243.5,361.0729 L1243.5,363.4063 L1247,363.4063 L1247,361.0729 L1249.3333,361.0729 L1249.3333,359.9063 L1249.3683,359.8713 C1249.5433,359.9063 1249.73,359.9063 1249.9167,359.9063 C1251.5267,359.9063 1252.8333,358.5996 1252.8333,356.9896 C1252.8333,355.3796 1251.5267,354.0729 1249.9167,354.0729 M1250.5,355.2396 C1251.1417,355.2396 1251.6667,355.7646 1251.6667,356.4063 C1251.6667,357.0479 1251.1417,357.5729 1250.5,357.5729 C1249.8583,357.5729 1249.3333,357.0479 1249.3333,356.4063 C1249.3333,355.7646 1249.8583,355.2396 1250.5,355.2396 " fill="#DAA520" style="stroke:;stroke-width:0.0;stroke-dasharray:;"/><text fill="#000000" font-family="Verdana" font-size="14" lengthAdjust="spacing" textLength="4" x="1253.8333" y="363.6045">&#160;</text><text fill="#000000" font-family="Verdana" font-size="14" font-weight="bold" lengthAdjust="spacing" textLength="98" x="1257.8333" y="363.6045">product_key</text><text fill="#000000" font-family="Verdana" font-size="14" lengthAdjust="spacing" textLength="103" x="1355.8333" y="363.6045">:         INTEGER</text><path d="M1247,370.3698 C1245.0633,370.3698 1243.5,371.9331 1243.5,373.8698 C1243.5,375.8065 1245.0633,377.3698 1247,377.3698 C1248.9367,377.3698 1250.5,375.8065 1250.5,373.8698 C1250.5,371.9331 1248.9367,370.3698 1247,370.3698 " fill="#FFFFFF" style="stroke:;stroke-width:0.0;stroke-dasharray:;"/><text fill="#000000" font-family="Verdana" font-size="14" lengthAdjust="spacing" textLength="4" x="1253.8333" y="379.9014">&#160;</text><text fill="#000000" font-family="Verdana" font-size="14" font-weight="bold" lengthAdjust="spacing" textLength="86" x="1257.8333" y="379.9014">product_id</text><text fill="#000000" font-family="Verdana" font-size="14" lengthAdjust="spacing" textLength="91" x="1343.8333" y="379.9014">:      INTEGER</text><path d="M1247,386.6667 C1245.0633,386.6667 1243.5,388.23 1243.5,390.1667 C1243.5,392.1033 1245.0633,393.6667 1247,393.6667 C1248.9367,393.6667 1250.5,392.1033 1250.5,390.1667 C1250.5,388.23 1248.9367,386.6667 1247,386.6667 " fill="#FFFFFF" style="stroke:;stroke-width:0.0;stroke-dasharray:;"/><text fill="#000000" font-family="Verdana" font-size="14" lengthAdjust="spacing" textLength="4" x="1253.8333" y="396.1982">&#160;</text><text fill="#000000" font-family="Verdana" font-size="14" font-weight="bold" lengthAdjust="spacing" textLength="115" x="1257.8333" y="396.1982">product_name</text><text fill="#000000" font-family="Verdana" font-size="14" lengthAdjust="spacing" textLength="127" x="1372.8333" y="396.1982">:    VARCHAR(255)</text><path d="M1247,402.9635 C1245.0633,402.9635 1243.5,404.5269 1243.5,406.4635 C1243.5,408.4002 1245.0633,409.9635 1247,409.9635 C1248.9367,409.9635 1250.5,408.4002 1250.5,406.4635 C1250.5,404.5269 1248.9367,402.9635 1247,402.9635 " fill="#FFFFFF" style="stroke:;stroke-width:0.0;stroke-dasharray:;"/><text fill="#000000" font-family="Verdana" font-size="14" lengthAdjust="spacing" textLength="4" x="1253.8333" y="412.4951">&#160;</text><text fill="#000000" font-family="Verdana" font-size="14" font-weight="bold" lengthAdjust="spacing" textLength="107" x="1257.8333" y="412.4951">updated_dtm</text><text fill="#000000" font-family="Verdana" font-size="14" lengthAdjust="spacing" textLength="108" x="1364.8333" y="412.4951">:     TIMESTAMP</text></g><!--class dim_salesperson--><g id="elem_dim_salesperson"><rect codeLine="9" fill="#FFFFFF" height="101.1875" id="dim_salesperson" rx="2.5" ry="2.5" style="stroke:#000000;stroke-width:1.0;" width="302.3333" x="899" y="318.6094"/><ellipse cx="979.4167" cy="332.6094" fill="#1E90FF" rx="9" ry="9" style="stroke:#000000;stroke-width:1.0;"/><path d="M979.8542,330.1406 L981.6979,330.1406 L981.6979,331.7344 C981.6979,332.125 981.7292,332.2969 981.8229,332.4375 C981.9792,332.6875 982.2604,332.8438 982.5573,332.8438 C982.8229,332.8438 983.0729,332.7188 983.2448,332.5 C983.3854,332.3281 983.401,332.2031 983.401,331.7344 L983.401,328.4531 L974.6354,328.4531 L974.6354,331.7344 C974.6354,332.125 974.6667,332.2969 974.7448,332.4375 C974.901,332.7031 975.1979,332.8438 975.4792,332.8438 C975.7604,332.8438 976.0104,332.7188 976.1823,332.5 C976.2917,332.3281 976.3229,332.1875 976.3229,331.7344 L976.3229,330.1406 L978.151,330.1406 L978.151,336.6563 L977.0417,336.6563 C976.6042,336.6563 976.4792,336.6719 976.3229,336.7813 C976.0729,336.9375 975.9167,337.2188 975.9167,337.5156 C975.9167,337.7656 976.0573,338.0313 976.276,338.1875 C976.4323,338.3125 976.651,338.3594 977.0417,338.3594 L980.9792,338.3594 C981.3073,338.3594 981.5729,338.3125 981.6823,338.2344 C981.9479,338.0938 982.0885,337.7969 982.0885,337.5156 C982.0885,337.2344 981.9635,336.9844 981.7292,336.8125 C981.5729,336.6875 981.4323,336.6563 980.9792,336.6563 L979.8542,336.6563 L979.8542,330.1406 Z " fill="#000000"/><text fill="#000000" font-family="Verdana" font-size="14" font-weight="bold" lengthAdjust="spacing" textLength="134" x="996.9167" y="337.4561">dim_salesperson</text><line style="stroke:#000000;stroke-width:1.0;" x1="900" x2="1200.3333" y1="346.6094" y2="346.6094"/><path d="M912.4167,354.0729 C910.8067,354.0729 909.5,355.3796 909.5,356.9896 C909.5,357.1763 909.5,357.3629 909.535,357.5379 L906,361.0729 L906,363.4063 L909.5,363.4063 L909.5,361.0729 L911.8333,361.0729 L911.8333,359.9063 L911.8683,359.8713 C912.0433,359.9063 912.23,359.9063 912.4167,359.9063 C914.0267,359.9063 915.3333,358.5996 915.3333,356.9896 C915.3333,355.3796 914.0267,354.0729 912.4167,354.0729 M913,355.2396 C913.6417,355.2396 914.1667,355.7646 914.1667,356.4063 C914.1667,357.0479 913.6417,357.5729 913,357.5729 C912.3583,357.5729 911.8333,357.0479 911.8333,356.4063 C911.8333,355.7646 912.3583,355.2396 913,355.2396 " fill="#DAA520" style="stroke:;stroke-width:0.0;stroke-dasharray:;"/><text fill="#000000" font-family="Verdana" font-size="14" lengthAdjust="spacing" textLength="4" x="916.3333" y="363.6045">&#160;</text><text fill="#000000" font-family="Verdana" font-size="14" font-weight="bold" lengthAdjust="spacing" textLength="131" x="920.3333" y="363.6045">salesperson_key</text><text fill="#000000" font-family="Verdana" font-size="14" lengthAdjust="spacing" textLength="103" x="1051.3333" y="363.6045">:         INTEGER</text><path d="M909.5,370.3698 C907.5633,370.3698 906,371.9331 906,373.8698 C906,375.8065 907.5633,377.3698 909.5,377.3698 C911.4367,377.3698 913,375.8065 913,373.8698 C913,371.9331 911.4367,370.3698 909.5,370.3698 " fill="#FFFFFF" style="stroke:;stroke-width:0.0;stroke-dasharray:;"/><text fill="#000000" font-family="Verdana" font-size="14" lengthAdjust="spacing" textLength="4" x="916.3333" y="379.9014">&#160;</text><text fill="#000000" font-family="Verdana" font-size="14" font-weight="bold" lengthAdjust="spacing" textLength="119" x="920.3333" y="379.9014">salesperson_id</text><text fill="#000000" font-family="Verdana" font-size="14" lengthAdjust="spacing" textLength="135" x="1039.3333" y="379.9014">:      VARCHAR(255)</text><path d="M909.5,386.6667 C907.5633,386.6667 906,388.23 906,390.1667 C906,392.1033 907.5633,393.6667 909.5,393.6667 C911.4367,393.6667 913,392.1033 913,390.1667 C913,388.23 911.4367,386.6667 909.5,386.6667 " fill="#FFFFFF" style="stroke:;stroke-width:0.0;stroke-dasharray:;"/><text fill="#000000" font-family="Verdana" font-size="14" lengthAdjust="spacing" textLength="4" x="916.3333" y="396.1982">&#160;</text><text fill="#000000" font-family="Verdana" font-size="14" font-weight="bold" lengthAdjust="spacing" textLength="148" x="920.3333" y="396.1982">salesperson_name</text><text fill="#000000" font-family="Verdana" font-size="14" lengthAdjust="spacing" textLength="127" x="1068.3333" y="396.1982">:    VARCHAR(255)</text><path d="M909.5,402.9635 C907.5633,402.9635 906,404.5269 906,406.4635 C906,408.4002 907.5633,409.9635 909.5,409.9635 C911.4367,409.9635 913,408.4002 913,406.4635 C913,404.5269 911.4367,402.9635 909.5,402.9635 " fill="#FFFFFF" style="stroke:;stroke-width:0.0;stroke-dasharray:;"/><text fill="#000000" font-family="Verdana" font-size="14" lengthAdjust="spacing" textLength="4" x="916.3333" y="412.4951">&#160;</text><text fill="#000000" font-family="Verdana" font-size="14" font-weight="bold" lengthAdjust="spacing" textLength="107" x="920.3333" y="412.4951">updated_dtm</text><text fill="#000000" font-family="Verdana" font-size="14" lengthAdjust="spacing" textLength="124" x="1027.3333" y="412.4951">:         TIMESTAMP</text></g><!--link customer to dim_customer--><g id="link_customer_dim_customer"><path codeLine="99" d="M731.531,235.8654 C730.329,260.1974 729.2929,281.1787 728.1469,304.3857 " fill="none" id="customer-to-dim_customer" style="stroke:#000000;stroke-width:1.0;"/><polygon fill="#000000" points="727.851,310.3784,732.29,301.5866,728.0976,305.3845,724.2998,301.192,727.851,310.3784" style="stroke:#000000;stroke-width:1.0;"/></g><!--link product to dim_product--><g id="link_product_dim_product"><path codeLine="100" d="M1371,207.5674 C1371,239.7734 1371,278.3354 1371,312.3414 " fill="none" id="product-to-dim_product" style="stroke:#000000;stroke-width:1.0;"/><polygon fill="#000000" points="1371,318.3414,1375,309.3414,1371,313.3414,1367,309.3414,1371,318.3414" style="stroke:#000000;stroke-width:1.0;"/></g><!--link salesperson to dim_salesperson--><g id="link_salesperson_dim_salesperson"><path codeLine="101" d="M1050,211.3064 C1050,243.1524 1050,279.6174 1050,312.3234 " fill="none" id="salesperson-to-dim_salesperson" style="stroke:#000000;stroke-width:1.0;"/><polygon fill="#000000" points="1050,318.3234,1054,309.3234,1050,313.3234,1046,309.3234,1050,318.3234" style="stroke:#000000;stroke-width:1.0;"/></g><!--link order_info to fact_orderline--><g id="link_order_info_fact_orderline"><path codeLine="102" d="M215.153,215.1964 C276.539,270.2354 380.745,360.1804 478,427.6094 C512.552,451.5644 546.189,472.2747 582.657,493.2517 " fill="none" id="order_info-to-fact_orderline" style="stroke:#000000;stroke-width:1.0;"/><polygon fill="#000000" points="587.858,496.2434,582.051,488.2886,583.5239,493.7503,578.0621,495.2232,587.858,496.2434" style="stroke:#000000;stroke-width:1.0;"/></g><!--link orderline to fact_orderline--><g id="link_orderline_fact_orderline"><path codeLine="103" d="M471.185,231.7764 C490.902,287.2974 523.88,367.0154 568,427.6094 C583.359,448.7044 597.9243,464.8886 617.2433,483.2356 " fill="none" id="orderline-to-fact_orderline" style="stroke:#000000;stroke-width:1.0;"/><polygon fill="#000000" points="621.594,487.3674,617.8225,478.2693,617.9684,483.9242,612.3135,484.0702,621.594,487.3674" style="stroke:#000000;stroke-width:1.0;"/></g><!--link dim_customer to fact_orderline--><g id="link_dim_customer_fact_orderline"><path codeLine="104" d="M725,427.8134 C725,446.4554 725,461.4964 725,481.5524 " fill="none" id="dim_customer-to-fact_orderline" style="stroke:#000000;stroke-width:1.0;"/><polygon fill="#000000" points="725,487.5524,729,478.5524,725,482.5524,721,478.5524,725,487.5524" style="stroke:#000000;stroke-width:1.0;"/></g><!--link dim_product to fact_orderline--><g id="link_dim_product_fact_orderline"><path codeLine="105" d="M1242.31,419.6234 C1234.45,422.3904 1226.63,425.0744 1219,427.6094 C1099.59,467.2824 967.6521,504.7571 868.0031,531.8331 " fill="none" id="dim_product-to-fact_orderline" style="stroke:#000000;stroke-width:1.0;"/><polygon fill="#000000" points="862.213,533.4064,871.9469,534.9066,867.0381,532.0953,869.8493,527.1865,862.213,533.4064" style="stroke:#000000;stroke-width:1.0;"/></g><!--link dim_salesperson to fact_orderline--><g id="link_dim_salesperson_fact_orderline"><path codeLine="106" d="M969.245,419.6804 C935.876,440.1634 901.4025,461.3255 863.9185,484.3345 " fill="none" id="dim_salesperson-to-fact_orderline" style="stroke:#000000;stroke-width:1.0;"/><polygon fill="#000000" points="858.805,487.4734,868.5678,486.1741,863.0662,484.8577,864.3827,479.3561,858.805,487.4734" style="stroke:#000000;stroke-width:1.0;"/></g><!--SRC=[jLPTQzim57tlhr3TCfBG3nZq9HX3jeQki8wHXeqz1TMwIKHboxFbXLBotolRiIqvbgqcNLuIIUVew1vT7-TKh240535CmnCaFsjA044GYHSKW5XpafpaywTHp7qWQGpeFF4b2G_EGnp0XHooT3NCGTadmlupNW5oycK7uQH08DUTWIzmk6BWUSMU499gstqPWPyO65GW55GUqN6Vl1pWNZzvcXOQp2_GBIShYB-m58R8JfC64O_5ySf_W36-iLMDdWknMiNrEUFn-EoECmBXZ1FF_VGCBvvxdIzuICgFHZbfDCgEO2EpDCeyKlOFugP69M2pURgt-UkI0YDRULJP4kEpmXAlqlozfWAaP024uiiOV1wJ0xKb9mr2e_x72CfhPxAjRx70Q8DZMFCq0QTOAny9XpCHEHUe-1wYr-emMcSvKXdY1GsNF0VN8vMIqsHhbEl46OxLjViVy-dTTARZTrOuVfe87cYqNvFPrs-JsU3ppSsmdPHW1aa4SSB3ajTFIYE21P054K6fDBz_c3xE9my_AyQsomX6GwXyo0Tc6x9btOfE6rgiwyJBEoUfBrH69_vlYlCyKFQVJIVVJPjJ7_HBD8EFihMy_SpLwdUhgGVrIKPQvF6UKomQIyG0eYhTGa7tj9z0HQWw- -wsjVTsroAPjUNFLcTRMicw_Mfl__S3g3poMKNgiBMgbeYmzrmb7rjYLvbRFPJ9PftLbdtjrRIpOOcbwreODMQQnBvKwhhkzg2MhrwBW3VwsQ3tSWql5IjksQRxH-xdjYIcCGpxqjEEQ6YUzWRIdnMrHGWD5cgkQcDZUnYkrxujB7AvdMYHpmR5AahjY5Rvq-shagdgqEYgeG6j6xVdzNvm9d-qBurqRauP_Jac60m9RrVpUnF-i9JNJIj-PV-uhyeUHfUN7f9vVwK-f3LiTwKQQZTNWvHIDA0oNuFhl_0LLd-1DA3PL1UoUNORRBEg3cXRRJhy3G00]--></g></svg>